<?xml version="1.0" encoding="utf-8"?>
<!-- Generator: Adobe Illustrator 25.4.1, SVG Export Plug-In . SVG Version: 6.00 Build 0)  -->
<svg version="1.1" id="Layer_1" xmlns="http://www.w3.org/2000/svg" xmlns:xlink="http://www.w3.org/1999/xlink" x="0px" y="0px"
	 viewBox="0 0 64 64" style="enable-background:new 0 0 64 64;" xml:space="preserve">
<path d="M57.9,22.4c-8.1,8.1-15.6,15.3-22.9,22.5c-0.9,0.9-1.9,2.7-3.6,2c-2-0.8-1.3-2.7-1.3-4.2c0-6.6,0-12.9,0-19.5
	c-1.3-0.1-1.8,0.9-2.4,1.5c-7.1,7-14.2,14-21.1,21c-0.9,0.9-2,2.7-3.8,0.9c-1.3-1.5,0.1-2.4,1.1-3.4c8.6-8.5,17.1-16.9,25.7-25.1
	c0.8-0.8,1.5-1.9,2.8-1.3c1.5,0.5,1.3,1.9,1.3,3.2c0,6.7,0,13.7,0,21.8c3.4-3.4,5.8-6,8.6-8.6c4.8-4.8,10-9.8,14.8-14.7
	c0.9-0.8,1.8-2,3.2-1.5c1.8,0.5,1.3,2.3,1.3,3.6c0,7.9,0,15.7,0,23.4c0,1.5,0.4,3.4-1.8,3.4c-2.4,0-1.9-2-1.9-3.6
	C57.8,36.8,57.9,30.1,57.9,22.4z"/>
</svg>
