<?xml version="1.0" encoding="utf-8"?>
<!-- Generator: Adobe Illustrator 25.4.1, SVG Export Plug-In . SVG Version: 6.00 Build 0)  -->
<svg version="1.1" id="Layer_1" xmlns="http://www.w3.org/2000/svg" xmlns:xlink="http://www.w3.org/1999/xlink" x="0px" y="0px"
	 viewBox="0 0 200 50" style="enable-background:new 0 0 200 50;" xml:space="preserve">
<style type="text/css">
	.st0{fill:#33CA36;}
	.st1{enable-background:new    ;}
</style>
<g>
	<rect x="11" y="10.9" class="st0" width="36.9" height="28.3"/>
	<g id="Layer_2_00000000928593114032838060000012462352610689015228_">
		<path d="M40.3,20.8c-3.5,3.5-6.9,6.8-10.1,9.9c-0.4,0.4-0.8,1.2-1.6,0.9c-0.9-0.3-0.6-1.2-0.6-1.9c0-2.9,0-5.7,0-8.7
			c-0.6-0.1-0.8,0.4-1.1,0.7c-3.1,3.1-6.3,6.2-9.3,9.2c-0.4,0.4-0.9,1.2-1.7,0.4c-0.6-0.7,0.1-1.1,0.4-1.4
			c3.8-3.8,7.5-7.4,11.3-11.1c0.3-0.3,0.7-0.8,1.2-0.6c0.7,0.2,0.6,0.8,0.6,1.4c0,3,0,6.1,0,9.7c1.4-1.4,2.6-2.7,3.8-3.8
			c2.1-2.1,4.4-4.3,6.5-6.4c0.4-0.3,0.8-0.9,1.4-0.7c0.8,0.2,0.6,1,0.6,1.6c0,3.5,0,7,0,10.3c0,0.7,0.2,1.4-0.8,1.4
			c-1.1,0-0.8-0.9-0.8-1.6C40.2,27.1,40.3,24.1,40.3,20.8z"/>
	</g>
	<g class="st1">
		<path class="st0" d="M59.5,23v9.7h-2.6V17.4h3.8l3.2,9.2c0.1,0.4,0.2,0.9,0.4,1.4c0.1,0.4,0.2,0.9,0.3,1.3
			c0.1-0.2,0.1-0.6,0.2-0.8c0.1-0.3,0.1-0.6,0.2-0.9s0.1-0.6,0.2-0.8l3.2-9.5h3.8v15.3h-2.6v-9.5c0-0.3,0-0.8,0-1.4
			c0-0.6,0-1.2,0.1-1.9c-0.2,0.9-0.4,1.6-0.6,2.2c-0.1,0.7-0.3,1.1-0.4,1.6l-3.2,9.1h-2l-3.2-9.2l-1.1-3.8c0,0.8,0.1,1.3,0.1,1.9
			C59.5,22.2,59.5,22.7,59.5,23z"/>
		<path class="st0" d="M78.6,28.6l-1.4,4.1h-2.9l5.8-15.3h3.3l5.8,15.3h-2.8L85,28.6H78.6z M81.8,19.5c-0.1,0.3-0.2,0.7-0.3,1.1
			c-0.1,0.4-0.2,0.8-0.3,1l-1.7,4.8h4.8l-1.8-4.9c-0.1-0.3-0.2-0.6-0.3-1C82,20.2,81.9,19.8,81.8,19.5z"/>
		<path class="st0" d="M96.2,19.6v13.1h-2.8V19.6h-5v-2.2h13v2.2H96.2z"/>
		<path class="st0" d="M105.9,25.9v6.8h-2.9V17.4h2.9v6.2h7.2v-6.2h2.8v15.3h-2.8v-6.8H105.9z"/>
		<path class="st0" d="M131.6,30.5v2.2h-12.3V17.4h11.9v2.2H122v4.2h8.4V26H122v4.4H131.6z"/>
		<path class="st0" d="M142.2,23.4l-2.3,9.3h-3.3l-4.1-15.3h2.9l2.3,9.5c0.1,0.4,0.2,1,0.3,1.6c0.1,0.6,0.2,1.1,0.3,1.7
			c0.1-0.3,0.1-0.7,0.2-1s0.1-0.7,0.2-1.1c0.1-0.3,0.1-0.7,0.2-1l2.3-9.5h3.1l2.3,9.2c0.1,0.4,0.2,1,0.3,1.6s0.2,1.2,0.3,1.9
			c0.1-0.4,0.2-0.8,0.3-1.2c0.1-0.3,0.2-0.8,0.2-1.1c0.1-0.3,0.1-0.7,0.2-1l2.2-9.3h2.9l-4.1,15.2h-3.3l-2.2-9.1
			c-0.1-0.4-0.2-1-0.3-1.4c-0.1-0.6-0.2-1.1-0.3-1.8c-0.1,0.3-0.1,0.8-0.2,1.1c-0.1,0.4-0.2,0.8-0.2,1.2
			C142.3,22.9,142.3,23.3,142.2,23.4z"/>
		<path class="st0" d="M167.3,28.3c0,1.4-0.6,2.6-1.7,3.4c-1.1,0.8-2.7,1.2-4.8,1.2c-3.9,0-6.1-1.3-6.7-4.1l2.8-0.4
			c0.2,0.9,0.7,1.4,1.3,1.9c0.7,0.3,1.6,0.6,2.7,0.6c1.2,0,2.1-0.2,2.7-0.6c0.6-0.3,0.9-1,0.9-1.7c0-0.4-0.1-0.8-0.3-1.1
			c-0.2-0.3-0.6-0.6-1-0.8c-0.3-0.1-0.7-0.2-1.2-0.3c-0.4-0.1-1.1-0.2-1.8-0.4c-0.8-0.2-1.4-0.3-1.9-0.4c-0.4-0.1-0.9-0.3-1.1-0.4
			c-0.3-0.1-0.6-0.3-0.8-0.4c-0.4-0.3-0.9-0.8-1.1-1.2c-0.2-0.6-0.4-1.1-0.4-1.9c0-1.3,0.6-2.4,1.6-3.1c1-0.8,2.6-1.1,4.4-1.1
			c1.9,0,3.2,0.3,4.2,0.9c1,0.6,1.6,1.6,1.9,2.9l-2.8,0.4c-0.2-0.7-0.6-1.2-1.1-1.6c-0.6-0.3-1.3-0.6-2.2-0.6
			c-1.1,0-1.9,0.2-2.4,0.6c-0.6,0.3-0.8,0.9-0.8,1.6c0,0.4,0.1,0.8,0.3,1s0.6,0.6,1,0.7c0.4,0.2,1.2,0.4,2.6,0.7
			c0.7,0.1,1.3,0.3,1.9,0.4c0.6,0.1,1,0.3,1.3,0.4c0.3,0.1,0.6,0.3,0.9,0.4c0.2,0.1,0.4,0.3,0.7,0.6c0.3,0.3,0.6,0.8,0.8,1.2
			C167.3,27.1,167.3,27.7,167.3,28.3z"/>
		<path class="st0" d="M189,28.3c0,1.3-0.6,2.4-1.6,3.2s-2.4,1.1-4.3,1.1h-7.2V17.4h6.5c1.9,0,3.2,0.3,4.2,1
			c0.9,0.7,1.4,1.6,1.4,2.9c0,0.9-0.2,1.7-0.8,2.2c-0.4,0.6-1.2,1-2.2,1.2c1.2,0.1,2.2,0.6,2.8,1.2C188.7,26.5,189,27.3,189,28.3z
			 M185.2,21.5c0-0.8-0.2-1.2-0.8-1.6c-0.4-0.3-1.2-0.4-2.1-0.4h-3.5v4.1h3.7c1,0,1.7-0.2,2.1-0.6C185,22.7,185.2,22.3,185.2,21.5z
			 M186.1,28c0-1.6-1.1-2.3-3.3-2.3h-4v4.8h4.1c1.1,0,1.9-0.2,2.4-0.6C185.9,29.5,186.1,28.9,186.1,28z"/>
	</g>
</g>
</svg>
